<?xml version="1.0" encoding="utf-8"?>
<!-- Generator: Adobe Illustrator 22.0.0, SVG Export Plug-In . SVG Version: 6.00 Build 0)  -->
<svg version="1.1" id="Capa_1" xmlns="http://www.w3.org/2000/svg" xmlns:xlink="http://www.w3.org/1999/xlink" x="0px" y="0px"
	 viewBox="0 0 512 512" style="enable-background:new 0 0 512 512;" xml:space="preserve">
<style type="text/css">
	.st0{fill:#FFFFFF;}
</style>
<g>
	<g>
		<path class="st0" d="M506.1,451.4L351.4,296.7c-3.8-3.8-8.8-5.9-14.1-5.9c-4.9,0-9.5,1.8-13.1,5l-21.8-21.8
			c52.2-66,48.4-162.7-13.3-224.4c0,0,0,0,0,0c-66-66-173.3-66-239.3,0c-66.1,66.1-66.1,173.2,0,239.3
			c60.8,60.8,157.5,66,224.4,13.3l21.9,21.9c-6.9,7.9-6.6,19.8,0.9,27.3l154.8,154.8c7.8,7.8,20.5,7.8,28.3,0l13.2-13.2c0,0,0,0,0,0
			s0,0,0,0l13.2-13.2C514,471.9,514,459.2,506.1,451.4z M260.7,260.6c-50.5,50.5-132.3,50.5-182.8,0c-50.5-50.5-50.5-132.3,0-182.8
			c50.4-50.4,132.4-50.4,182.8,0C311.2,128.3,311.2,210.1,260.7,260.6z"/>
	</g>
</g>
</svg>
